<?xml version="1.0" standalone="no"?>
<!DOCTYPE svg PUBLIC "-//W3C//DTD SVG 20010904//EN"
 "http://www.w3.org/TR/2001/REC-SVG-20010904/DTD/svg10.dtd">
<svg version="1.0" xmlns="http://www.w3.org/2000/svg"
 width="902.000000pt" height="902.000000pt" viewBox="0 0 902.000000 902.000000"
 preserveAspectRatio="xMidYMid meet">
<metadata>
Created by potrace 1.14, written by Peter Selinger 2001-2017
</metadata>
<g transform="translate(0.000000,902.000000) scale(0.100000,-0.100000)"
fill="#000000" stroke="none">
<path d="M4220 9004 c-25 -2 -115 -11 -200 -20 -85 -9 -166 -18 -180 -19 -26
-3 -84 -14 -225 -42 -95 -18 -379 -89 -415 -103 -14 -5 -34 -11 -45 -13 -11
-1 -24 -5 -30 -9 -5 -3 -53 -20 -105 -38 -125 -43 -351 -136 -480 -199 -119
-58 -359 -194 -447 -253 -40 -26 -77 -48 -83 -48 -5 0 -10 -4 -10 -8 0 -4 -15
-16 -32 -27 -27 -16 -71 -47 -143 -103 -5 -4 -47 -36 -92 -70 -46 -35 -94 -73
-107 -85 -14 -12 -47 -40 -73 -62 -64 -53 -355 -344 -422 -422 -30 -35 -58
-60 -64 -56 -6 3 -7 1 -3 -5 4 -7 -18 -41 -53 -81 -32 -38 -79 -96 -102 -128
-53 -71 -230 -338 -247 -373 -7 -14 -18 -34 -25 -45 -44 -74 -62 -101 -71
-107 -6 -4 -8 -8 -4 -8 4 0 -1 -15 -12 -32 -11 -18 -25 -44 -31 -58 -5 -13
-13 -27 -17 -30 -4 -3 -14 -21 -23 -40 -56 -119 -81 -174 -109 -245 -17 -44
-35 -84 -39 -90 -5 -5 -15 -30 -24 -55 -9 -25 -28 -76 -42 -115 -15 -38 -27
-76 -28 -82 0 -7 -4 -13 -8 -13 -4 0 -9 -15 -12 -32 -3 -18 -24 -98 -47 -178
-43 -154 -91 -373 -109 -505 -7 -44 -18 -120 -26 -170 -29 -175 -39 -624 -20
-865 2 -30 6 -89 9 -130 2 -41 12 -129 21 -195 9 -66 18 -133 20 -150 4 -28
25 -132 75 -365 11 -52 25 -117 30 -144 13 -62 31 -128 40 -141 6 -8 20 -51
24 -75 1 -3 4 -9 8 -15 3 -5 12 -36 19 -67 8 -32 17 -58 20 -58 4 0 10 -12 13
-27 10 -36 190 -406 221 -450 13 -20 22 -40 19 -45 -3 -4 -1 -8 3 -8 5 0 17
-15 27 -32 69 -121 386 -550 457 -620 21 -21 42 -45 47 -53 8 -15 196 -207
341 -349 39 -38 68 -74 64 -80 -3 -6 -3 -8 2 -4 6 6 116 -79 145 -112 14 -16
220 -166 316 -231 60 -40 111 -77 112 -81 2 -4 8 -8 13 -8 4 0 41 -21 81 -47
40 -27 83 -53 95 -60 12 -6 50 -26 85 -44 35 -19 65 -36 68 -39 3 -3 46 -25
95 -49 50 -23 96 -50 103 -59 7 -10 12 -11 12 -4 0 8 13 6 39 -7 21 -11 85
-39 142 -61 145 -58 159 -64 159 -73 0 -5 5 -5 10 -2 6 4 16 2 23 -3 7 -5 28
-13 47 -17 19 -4 37 -11 40 -14 7 -10 243 -82 310 -95 14 -3 70 -16 125 -30
55 -14 114 -26 131 -26 17 0 34 -3 38 -7 4 -5 17 -9 29 -10 18 -1 178 -24 332
-48 234 -35 720 -31 1030 11 110 14 211 28 225 29 53 7 230 46 340 76 63 17
124 32 135 34 28 4 252 80 360 122 196 75 459 203 643 310 51 30 98 51 104 47
6 -4 8 -3 5 3 -3 5 32 34 79 64 47 30 100 64 117 77 84 59 243 176 247 181 3
3 41 35 85 71 96 78 75 59 230 205 70 66 132 119 137 117 5 -1 7 2 3 8 -3 5
20 37 52 69 32 33 84 91 117 130 32 39 62 69 66 66 4 -3 7 1 6 8 -1 13 18 41
81 119 18 22 58 76 90 121 31 45 62 87 69 92 6 6 20 26 30 45 11 19 22 37 25
40 3 3 14 19 23 35 9 17 30 53 47 80 16 28 36 64 44 82 11 24 20 31 33 27 12
-4 14 -3 4 4 -11 7 -10 15 6 41 10 17 21 28 24 25 3 -3 5 1 5 8 -2 15 114 251
126 256 4 2 7 9 7 15 0 7 21 62 46 122 25 61 50 128 56 150 6 22 17 44 25 48
7 5 11 12 8 16 -4 8 28 109 47 144 5 10 11 26 13 36 4 24 73 279 85 316 14 45
31 125 36 170 2 22 9 63 15 90 6 28 12 70 15 95 8 93 14 132 19 141 6 8 9 34
20 164 2 22 4 164 5 315 1 282 -5 374 -45 672 -10 73 -55 324 -65 363 -6 22
-15 60 -21 85 -31 153 -109 406 -169 555 -4 11 -22 56 -38 100 -30 78 -81 189
-123 270 -126 241 -292 525 -319 545 -4 3 -13 16 -20 29 -15 30 -160 221 -209
277 -20 22 -61 69 -91 104 -30 35 -65 75 -78 90 -43 47 -250 255 -278 280 -16
14 -61 53 -99 86 -112 98 -363 286 -490 366 -27 17 -72 46 -100 63 -175 111
-445 249 -635 325 -30 12 -63 26 -72 31 -10 5 -24 9 -31 9 -7 0 -37 11 -65 25
-29 14 -59 25 -67 25 -8 0 -38 9 -67 19 -110 40 -313 97 -453 126 -180 39
-266 55 -340 64 -44 6 -100 13 -125 16 -25 3 -67 8 -95 11 -64 6 -636 13 -695
8z"/>
</g>
</svg>
